<svg xmlns="http://www.w3.org/2000/svg" viewBox="0 0 24 24" width="24" height="24" role="img" aria-labelledby="title-eye-off" class="icon icon-eye-off" focusable="false">
  <title id="title-eye-off">Ocultar contraseña</title>
  <g fill="none" fill-rule="evenodd">
    <path d="M0 0h24v24H0z"/>
    <path fill="currentColor" d="M12 5c-7 0-11 6.5-11 7s4 7 11 7 11-6.5 11-7-4-7-11-7zm0 12c-2.761 0-5-2.239-5-5s2.239-5 5-5 5 2.239 5 5-2.239 5-5 5zm0-8a3 3 0 100 6 3 3 0 000-6z"/>
    <line x1="4" y1="4" x2="20" y2="20" stroke="currentColor" stroke-width="2" stroke-linecap="round"/>
  </g>
</svg>
