<svg xmlns="http://www.w3.org/2000/svg" viewBox="0 0 24 24" width="24" height="24" role="img" aria-labelledby="title-lock" class="icon icon-lock" focusable="false">
  <title id="title-lock">Contraseña</title>
  <g fill="none" fill-rule="evenodd">
    <path d="M0 0h24v24H0z"/>
    <path fill="currentColor" d="M17 8h-1V6c0-2.757-2.243-5-5-5S6 3.243 6 6v2H5c-1.103 0-2 .897-2 2v8c0 1.103.897 2 2 2h12c1.103 0 2-.897 2-2v-8c0-1.103-.897-2-2-2zM8 6c0-2.209 1.791-4 4-4s4 1.791 4 4v2H8V6zm4 9c-.828 0-1.5-.672-1.5-1.5S11.172 12 12 12s1.5.672 1.5 1.5S12.828 15 12 15z"/>
  </g>
</svg>
